# xmcd
#
# Track frame offsets: 
#        150
#        43991
#        86155
#        143678
#        186067
#        226003
#        265076
#        308383
#
# Disc length: 4772 seconds
#
# Revision: 0
# Processed by: cddbd v1.5.2PL0 Copyright (c) Steve Scherf et al.
# Submitted via: ExactAudioCopyFreeDBPlugin 1.0
#
DISCID=5e12a208
DTITLE=various, kubota makoto - 久保田麻琴 - ぞめき弐 徳島阿波おどり 正調連
DYEAR=2011
DGENRE=Tribal
TTITLE0=zomeki no.13 (蜂須賀連)
TTITLE1=zomeki no.14 (津田の盆踊り)
TTITLE2=zomeki no.15 (娯茶平)
TTITLE3=zomeki no.16 (ゑびす連)
TTITLE4=zomeki no.17 (天水連)
TTITLE5=zomeki no.18 (阿呆連)
TTITLE6=zomeki no.19 (藍吹雪)
TTITLE7=zomeki no.20 (葵連)
EXTD=
EXTT0=
EXTT1=
EXTT2=
EXTT3=
EXTT4=
EXTT5=
EXTT6=
EXTT7=
PLAYORDER=
